<svg id="Layer_1" data-name="Layer 1" xmlns="http://www.w3.org/2000/svg" viewBox="0 0 122.88 122.88"><defs><style>.cls-1{fill:#0077b5;}.cls-1,.cls-2{fill-rule:evenodd;}.cls-2{fill:#fff;}</style></defs><title>linkedin-square-color</title><path class="cls-1" d="M25.2,0H97.68a25.27,25.27,0,0,1,25.2,25.2V97.68a25.27,25.27,0,0,1-25.2,25.2H25.2A25.27,25.27,0,0,1,0,97.68V25.2A25.27,25.27,0,0,1,25.2,0Z"/><polygon class="cls-2" points="30.43 50.37 43.72 50.37 43.72 90.23 30.43 90.23 30.43 50.37 30.43 50.37"/><path class="cls-2" d="M43.72,39.29a6.65,6.65,0,1,1-6.64-6.64,6.64,6.64,0,0,1,6.64,6.64Z"/><path class="cls-2" d="M52.58,50.37H64.84v6.28H65c1.71-3.06,5.88-6.28,12.11-6.28,12.93,0,15.33,8.05,15.33,18.52V90.23H79.67V71.32C79.67,66.81,79.58,61,73,61s-7.67,4.91-7.67,10V90.23H52.58V50.37Z"/></svg>